HIERARCHY
ROOT Hips
{
  OFFSET 0 0 0
  CHANNELS 6 Xposition Yposition Zposition Zrotation Xrotation Yrotation
  JOINT Spine
  {
    OFFSET 0 10.1816 0.131521
    CHANNELS 3 Zrotation Xrotation Yrotation
    JOINT Spine1
    {
      OFFSET 0 10.0835 -1.0008
      CHANNELS 3 Zrotation Xrotation Yrotation
      JOINT Spine2
      {
        OFFSET 0 9.10001 -1.37342
        CHANNELS 3 Zrotation Xrotation Yrotation
        JOINT Neck
        {
          OFFSET 0 16.6717 -2.51617
          CHANNELS 3 Zrotation Xrotation Yrotation
          JOINT Head
          {
            OFFSET 0 9.61788 1.68501
            CHANNELS 3 Zrotation Xrotation Yrotation
            End Site
            {
              OFFSET 0 0 0
            }
          }
        }
        JOINT LeftShoulder
        {
          OFFSET 4.57045 10.946 -2.62799
          CHANNELS 3 Zrotation Xrotation Yrotation
          JOINT LeftArm
          {
            OFFSET 10.5924 -0.524583 -2.23212
            CHANNELS 3 Zrotation Xrotation Yrotation
            JOINT LeftForeArm
            {
              OFFSET 27.8415 -8.94286e-05 3.74589e-05
              CHANNELS 3 Zrotation Xrotation Yrotation
              JOINT LeftHand
              {
                OFFSET 28.3288 -1.74407e-05 3.78045e-05
                CHANNELS 3 Zrotation Xrotation Yrotation
                End Site
                {
                  OFFSET 0 0 0
                }
              }
            }
          }
        }
        JOINT RightShoulder
        {
          OFFSET -4.56997 10.9462 -2.62802
          CHANNELS 3 Zrotation Xrotation Yrotation
          JOINT RightArm
          {
            OFFSET -10.5928 -0.524798 -2.2321
            CHANNELS 3 Zrotation Xrotation Yrotation
            JOINT RightForeArm
            {
              OFFSET -27.8415 -3.30792e-05 1.16763e-05
              CHANNELS 3 Zrotation Xrotation Yrotation
              JOINT RightHand
              {
                OFFSET -28.3288 0 5.5816e-05
                CHANNELS 3 Zrotation Xrotation Yrotation
                End Site
                {
                  OFFSET 0 0 0
                }
              }
            }
          }
        }
      }
    }
  }
  JOINT LeftUpLeg
  {
    OFFSET 8.20778 -6.75171 -1.59956
    CHANNELS 3 Zrotation Xrotation Yrotation
    JOINT LeftLeg
    {
      OFFSET 0 -44.3705 0.284643
      CHANNELS 3 Zrotation Xrotation Yrotation
      JOINT LeftFoot
      {
        OFFSET 0 -44.4279 -2.98219
        CHANNELS 3 Zrotation Xrotation Yrotation
        JOINT LeftToeBase
        {
          OFFSET 0 -8.72867 10.7106
          CHANNELS 3 Zrotation Xrotation Yrotation
          End Site
          {
            OFFSET 0 0 0
          }
        }
      }
    }
  }
  JOINT RightUpLeg
  {
    OFFSET -8.2078 -6.75166 -1.59956
    CHANNELS 3 Zrotation Xrotation Yrotation
    JOINT RightLeg
    {
      OFFSET 0 -44.3705 0.286156
      CHANNELS 3 Zrotation Xrotation Yrotation
      JOINT RightFoot
      {
        OFFSET 0 -44.4277 -2.98379
        CHANNELS 3 Zrotation Xrotation Yrotation
        JOINT RightToeBase
        {
          OFFSET 0 -8.72867 10.7106
          CHANNELS 3 Zrotation Xrotation Yrotation
          End Site
          {
            OFFSET 0 0 0
          }
        }
      }
    }
  }
}
MOTION
Frames:	18
Frame Time:	0.0333333
39.1808 97.4168 285.768 2.08248 -28.3154 -172.761 -0.890082 1.6859 1.80763 -1.834 3.34278 3.64359 -1.834 3.34279 3.6436 -5.27527 -15.8549 -4.57727 7.01288 -6.42681 -10.3297 3.15769 0.0213017 -4.38712 -91.9701 39.3323 28.6458 23.9522 -26.2422 -69.6298 -0.911707 -5.54859 -1.05071 -5.35211 -0.220244 5.13224 82.9119 42.9001 -2.24967 -24.9532 -26.6459 65.8364 1.47222 2.59703 1.54963 12.7961 -61.9171 16.6477 -3.08694 41.9532 4.20658 6.83708 13.8617 -9.78188 -4.79775 -17.6059 -0.0380928 -2.40277 -2.33764 -7.73602 -0.393021 17.049 -1.77775 18.9177 31.5924 -12.694 -0.00232792 -0.0419729 -0.00353289 
37.8858 97.5956 277.53 0.70123 -27.349 -170.099 -0.990477 2.18541 0.899033 -1.9401 4.35669 1.84569 -1.9401 4.35669 1.84569 -5.05 -16.0713 -4.14999 6.95659 -7.22189 -9.93121 3.02434 0.052901 -4.82421 -88.1467 40.9666 20.1276 24.7425 -25.2797 -65.2465 -1.03537 -6.6882 -0.842325 -5.21267 -0.316148 5.29566 88.1607 40.0633 -6.36595 -25.1161 -24.7982 61.4443 1.66715 1.31429 1.64174 5.82337 -57.2196 11.2609 -2.73525 44.334 3.92196 6.62165 7.40192 -10.1629 -6.41673 -18.7514 0.113528 -5.57467 -16.4802 -9.65956 -1.63765 43.8423 -0.952401 14.3454 12.2577 -10.2713 -0.00232905 -0.0604468 -0.00353289 
36.5086 97.0592 269.528 -0.0584501 -26.8357 -167.887 -1.00646 2.52418 -0.00391787 -1.73482 5.04942 0.0628142 -1.73482 5.04944 0.0628154 -4.36759 -16.2441 -3.37758 6.82138 -8.13619 -9.08589 2.98151 0.102733 -5.1872 -83.5011 42.1535 10.7019 25.4173 -24.4883 -62.3165 -1.07586 -6.67814 -0.562383 -5.04082 -0.439167 5.36891 93.6457 35.4334 -10.8671 -24.8996 -21.9847 56.1239 1.89042 2.36371 1.58182 1.58445 -52.9001 7.42306 -2.2558 47.0701 3.59841 5.90503 0.908237 -9.32252 -7.84208 -19.3683 0.730614 -9.7935 -29.8294 -12.7822 -2.26499 62.2659 -0.47755 9.88367 -1.09164 -10.35 -0.0023293 -0.0643741 -0.00353289 
35.2732 95.9609 261.339 -0.00649802 -26.226 -166.071 -0.866982 2.74358 -0.911743 -1.12434 5.48937 -1.7352 -1.12435 5.48935 -1.73521 -3.62886 -16.3016 -2.38539 7.17659 -8.95801 -7.74232 3.00058 0.168531 -5.431 -78.3145 42.6232 0.858811 25.9452 -24.2997 -60.9486 -1.07658 -6.22915 -0.316975 -4.73233 -0.557932 5.29548 97.2659 30.0363 -15.3142 -23.6845 -18.1176 49.7253 2.13021 2.23821 1.60912 -0.0294648 -48.1982 5.15631 -1.58951 49.924 3.20492 5.234 -5.65227 -8.18234 -8.59279 -19.8159 1.05295 -15.2628 -43.335 -17.6558 -1.77271 74.1675 -0.723352 5.18319 -11.6271 -11.2564 -0.00232936 -0.0654582 -0.00353289 
34.2533 94.7708 252.658 0.0180393 -25.0581 -164.703 -0.676283 2.92679 -1.81782 -0.363509 5.8352 -3.53367 -0.363512 5.83518 -3.53367 -3.19853 -16.4837 -1.48963 7.69783 -8.8889 -6.29317 3.13124 0.254169 -5.4459 -74.1822 42.3069 -7.6606 26.3338 -25.4611 -62.4142 -1.02803 -5.06682 -0.193832 -4.26378 -0.698802 4.99389 98.2478 24.5442 -19.8713 -21.1992 -13.8642 42.8493 2.37342 0.148841 1.68394 -0.039241 -42.0234 4.42288 -0.838774 51.4264 2.59097 5.09968 -10.3767 -7.76788 -8.74104 -20.5793 1.54313 -22.9164 -55.1506 -24.4612 0.474929 78.3521 -2.74885 1.82549 -17.6964 -11.5641 -0.00232938 -0.0656543 -0.00353289 
33.381 94.2628 243.239 0.347523 -23.4374 -162.951 -0.381373 3.0427 -2.77957 0.61057 6.01778 -5.45218 0.610572 6.01782 -5.45216 -2.84346 -16.9842 -0.765008 7.90359 -7.85134 -5.00941 3.51889 0.472276 -5.16529 -72.1525 42.1434 -12.849 26.2143 -28.5518 -69.4569 -1.01669 -4.57421 -0.289911 -4.02525 -0.924181 4.36111 98.0581 19.5623 -26.3059 -19.0531 -11.5707 39.2109 2.57368 -1.99823 1.73112 1.07118 -34.2605 3.78063 -0.378161 49.8821 1.82586 5.92083 -10.3178 -8.6589 -9.24357 -21.1661 1.76259 -31.8609 -63.1328 -32.6816 1.61985 73.9417 -4.02255 0.931739 -18.6665 -10.4859 -0.00232942 -0.0663108 -0.00353289 
32.54 94.2192 233.032 0.813419 -21.7759 -160.879 -0.0731275 3.01783 -3.72509 1.62656 5.88939 -7.33257 1.62656 5.8894 -7.33256 -2.47062 -17.6488 -0.145198 7.80181 -6.40567 -3.84488 4.06722 0.889541 -4.80714 -70.0814 43.1947 -15.3474 26.9451 -31.9644 -80.2912 -0.876013 -4.80186 -0.252621 -4.42231 -1.312 3.60328 98.7333 15.7982 -35.5859 -19.0117 -12.583 41.6287 2.64928 -1.92822 1.65375 2.74147 -25.3785 2.06252 -0.389359 45.4749 1.20902 7.51141 -7.26004 -11.1818 -10.4256 -23.8917 1.27014 -39.3399 -66.568 -39.5067 1.12199 62.6658 -3.75059 1.56179 -15.7705 -8.6237 -0.00232957 -0.0687757 -0.00353289 
31.6141 94.0552 221.868 0.890405 -20.2113 -159.678 0.0936564 2.79654 -4.52462 2.39266 5.35391 -8.89303 2.39266 5.35392 -8.89302 -1.98962 -17.9552 -1.31942 7.3598 -4.37822 -0.198608 4.56765 1.19614 -4.67286 -67.9141 46.8509 -14.7575 28.8775 -36.9868 -90.2565 -0.535268 -2.75882 0.0605125 -5.10323 -1.8323 3.04255 100.101 12.68 -45.8798 -19.982 -15.8532 47.9778 2.52827 -1.68367 1.50706 4.49034 -15.3724 -0.224452 -0.97223 38.6918 0.451813 10.2728 -0.747252 -14.9959 -9.4967 -26.5514 0.609448 -40.9942 -66.5855 -40.408 0.699907 47.5823 -3.62767 3.16025 -7.52768 -5.7745 -0.00232986 -0.0734563 -0.00353289 
30.6025 94.2805 209.592 0.200215 -18.7102 -159.572 0.0865861 2.45897 -5.08906 2.81982 4.59293 -9.95529 2.81982 4.59293 -9.95528 -1.46426 -18.0506 -0.109548 6.17662 -2.02584 1.16705 4.79534 1.42473 -4.70626 -67.3474 52.1018 -11.1879 29.232 -41.6413 -98.136 -0.283027 -0.445829 0.213644 -5.65557 -2.46019 2.62249 100.597 9.86149 -54.0418 -20.1376 -18.7069 53.6903 2.44706 -2.55708 1.44538 5.44396 -4.28135 -4.31861 -2.14678 28.9305 -0.706984 13.4329 13.4164 -18.2615 -3.86594 -22.1651 1.15936 -36.7646 -63.3967 -36.6158 0.357238 32.4206 -4.0512 4.76648 4.23346 -5.56306 -0.00232993 -0.0745832 -0.00353289 
29.5878 94.5153 196.743 -1.20322 -17.7912 -160.247 -0.087379 2.00827 -5.32523 2.90004 3.63354 -10.3359 2.90004 3.63353 -10.3359 -1.14673 -18.2452 0.707613 4.84616 0.150359 2.04505 4.8655 1.50227 -4.76209 -69.6284 56.6662 -6.15412 29.4711 -43.2288 -100.937 -0.12018 0.811531 0.246275 -5.85308 -2.91285 2.30964 99.5878 7.37177 -56.5387 -19.94 -19.6522 55.7121 2.48407 -1.88229 1.28019 4.73621 5.18435 -11.4267 -2.31271 18.5804 -1.60526 13.9756 36.5792 -18.7337 -1.53465 -9.7251 1.38935 -32.477 -59.68 -34.2503 0.0971483 24.4491 -4.75391 5.3161 11.1408 -6.84904 -0.00232992 -0.0744526 -0.00353289 
28.6196 94.3058 183.86 -3.50519 -17.7674 -162.842 -0.396812 1.44656 -5.15798 2.68203 2.49689 -9.89071 2.68202 2.49689 -9.8907 -1.16998 -18.7568 1.39992 3.43705 1.25409 3.08151 4.90821 1.21254 -4.74022 -75.755 56.5208 -0.878862 30.3737 -40.5889 -96.3601 -0.096046 3.54642 0.349445 -5.58991 -2.65986 2.16609 96.9987 6.566 -51.3089 -20.1222 -19.2216 54.1768 2.56402 -2.3027 1.2829 1.52717 7.58133 -15.1252 -2.0928 20.6534 -1.10113 13.77 46.6051 -18.816 -2.25821 -11.5505 1.17049 -28.6155 -58.3658 -31.1724 0.347685 27.6979 -4.81717 3.31692 8.75507 -4.62928 -0.00232872 -0.0549511 -0.00353289 
27.8744 94.153 171.624 -4.55043 -16.7165 -168.144 -0.432436 1.23269 -4.26492 3.00746 2.10496 -8.03038 3.00746 2.10497 -8.03037 -1.01054 -18.5815 2.05444 2.04094 0.269807 4.27846 4.92496 0.849119 -4.90472 -80.0807 50.5057 -0.285923 29.7925 -34.5228 -86.5539 -0.368445 4.91604 0.391926 -4.84845 -1.90784 2.53572 93.4857 7.32939 -39.0871 -20.6265 -17.9455 50.4803 2.67607 -2.93256 1.22037 -1.55714 0.996904 -8.67925 -1.25955 41.0379 -0.119317 9.86196 38.5258 -15.2028 -2.99313 -13.3408 0.900687 -18.9653 -57.1533 -21.5889 0.528721 35.8043 -4.43121 1.18847 -0.155636 -4.94096 -0.00103156 -0.0297687 -0.00353289 
27.6139 94.9125 160.649 -3.18913 -13.645 -173.259 -0.248603 1.54858 -3.09697 3.74927 2.80993 -5.68561 3.74927 2.80993 -5.6856 -0.303606 -18.0387 2.40286 1.31694 -0.981023 4.74155 4.6278 0.555975 -5.60459 -78.2302 43.1013 -3.26205 26.6602 -30.1954 -77.5996 -0.834507 -3.09322 0.0102809 -4.13038 -1.30701 3.54146 90.9464 11.9437 -23.5376 -21.757 -17.8851 48.8666 2.58853 -2.21285 0.912614 0.462669 -10.7086 -0.0459587 0.468298 68.9124 -0.410909 9.91201 27.3786 -16.8577 -3.68065 -14.9831 0.60306 -7.09879 -51.648 -11.3998 0.385455 40.9158 -3.60183 -1.95008 -8.24446 -6.42216 -1.09315 -1.12504 -0.00353357 
27.6973 95.7559 150.99 -1.32562 -10.8493 -176.626 -0.157284 1.76025 -2.21729 4.21754 3.30971 -3.9195 4.21754 3.30971 -3.91949 0.403524 -17.6802 2.60972 0.730142 0.38894 4.49706 4.26103 0.533576 -6.28287 -71.5427 36.0044 -3.05928 24.2111 -30.2453 -78.2961 -0.936214 -6.37814 -0.404417 -3.96931 -1.06632 4.47626 86.0096 23.3951 -9.21698 -23.6524 -22.0562 54.749 2.17424 0.480949 0.618838 9.12736 -26.1966 9.38933 176.232 83.3915 -175.874 10.62 16.4717 -21.9492 -4.25701 -16.3312 0.315592 -0.128296 -43.8002 -7.49615 -0.0267852 42.2261 -2.76839 -5.95422 -13.5246 -7.20133 -3.2601 -3.39231 -0.00353909 
27.655 97.166 141.837 -1.59377 -9.74793 -179.129 -0.525889 1.53484 -1.33756 3.64555 2.96425 -2.10327 3.64555 2.96425 -2.10326 0.0936881 -17.0406 1.87562 1.54964 2.49909 2.75431 3.66102 0.451488 -6.54353 -58.2722 27.8531 -3.0382 22.9191 -31.9189 -86.313 -0.498246 -2.437 -0.877156 -4.18294 -0.755867 4.91106 74.1148 32.4335 2.54652 -22.6608 -28.6267 69.8999 1.98127 1.28633 0.819055 26.4716 -43.1823 26.046 179.125 62.0648 -178.582 7.72084 8.04659 -25.6291 -4.65393 -17.2428 0.0859824 0.959555 -35.8572 -6.46438 -0.198136 40.2357 -1.52046 -5.24446 -15.5602 -7.36789 -4.57198 -4.93826 -0.00354605 
27.222 100.302 132.117 -3.51413 -8.99483 179.925 -1.2681 1.20186 -0.47362 2.20627 2.39987 -0.315337 2.20626 2.39987 -0.315332 -0.69374 -15.6588 0.227171 3.23883 4.4851 -0.408439 2.7746 0.124788 -6.79486 -42.793 17.6879 -6.48507 20.5835 -32.0999 -89.3323 -0.280404 -3.29724 -1.7692 -4.30703 -0.427881 5.37601 59.9162 30.6543 8.94936 -23.5198 -31.6204 84.9246 1.71451 -0.153639 0.673504 49.8606 -56.9429 50.0805 179.397 52.0784 -178.516 5.43367 6.24066 -25.5702 -4.80147 -17.5769 -0.0363667 -0.67312 -23.6798 -5.22321 -0.0420777 30.0332 -0.643851 -4.0862 -15.6622 -7.95436 -3.05173 -3.85227 -0.00354089 
26.6027 105.841 121.606 -5.15154 -8.0801 -179.261 -1.80852 0.977279 -0.0351732 1.11618 1.9932 0.592946 1.11618 1.99321 0.59295 -1.36518 -14.0138 -0.852985 3.59625 7.21829 -2.73034 2.11893 -0.219793 -6.97617 -32.951 11.2378 -7.7405 15.5407 -29.7766 -86.0796 -0.711931 -4.29914 -2.73496 -3.94624 -0.326173 5.93803 47.1824 24.8009 10.2823 -24.4401 -34.2187 91.1869 1.51294 -1.14628 0.661789 70.6623 -69.2771 71.218 -179.847 53.6388 -178.799 5.34358 9.52449 -20.8472 -4.75876 -17.5499 -0.0801572 -2.29884 -7.25517 -1.91259 0.163939 10.0337 -1.19874 -0.8278 -2.06102 -8.54131 0.0547452 -0.126451 -0.0131378 
25.7339 113.583 111.059 -6.26048 -7.12164 -178.96 -2.08652 1.06117 0.176451 0.555618 2.17793 1.01342 0.555619 2.17793 1.01342 -1.2542 -13.074 -0.960075 2.88803 10.5141 -2.99482 1.73014 0.412109 -6.69033 -28.2286 13.823 -7.8392 11.7517 -30.5597 -78.3394 -1.20542 -0.0145017 -3.10858 -3.33309 -0.629146 6.21164 38.0469 17.9408 11.3021 -22.0415 -32.2199 89.1681 1.56671 -2.95844 1.26944 85.9876 -77.293 85.1235 -177.264 63.2051 179.26 4.82685 11.8485 -16.2012 -4.6369 -17.4796 -0.105254 -4.59012 2.69027 2.05662 0.177409 -1.76528 -3.10963 3.79513 14.2155 -8.35891 0.22807 -0.302579 -0.0469354 
